<svg xmlns="http://www.w3.org/2000/svg" width="70" height="70" viewBox="0 0 70 70">
  <g id="Grupo_2" data-name="Grupo 2" transform="translate(-2794 -388)">
    <circle id="Elipse_1" data-name="Elipse 1" cx="35" cy="35" r="35" transform="translate(2794 388)" fill="#0edf7d"/>
    <g id="Grupo_1" data-name="Grupo 1" transform="translate(2065.847 -47.183)">
      <path id="Trazado_17" data-name="Trazado 17" d="M743.609,514.115a7.447,7.447,0,0,1-3.456-6.531,8.262,8.262,0,0,1,.667-3.432,9.132,9.132,0,0,1,1.6-2.479,33.625,33.625,0,0,1,2.455-2.336,20.3,20.3,0,0,0,2.36-2.36,3.384,3.384,0,0,0,.739-2.169h8.486a6.694,6.694,0,0,1-1.049,3.838,20.661,20.661,0,0,1-3.051,3.409,18.1,18.1,0,0,0-2.05,2.169,3.062,3.062,0,0,0-.668,1.883,2.455,2.455,0,0,0,1.168,2.1,5.2,5.2,0,0,0,3.027.81,6.728,6.728,0,0,0,3.456-.906,7.06,7.06,0,0,0,2.5-2.479l7.1,3.766a13.445,13.445,0,0,1-5.53,5.2,18.5,18.5,0,0,1-8.629,1.859A16.036,16.036,0,0,1,743.609,514.115Zm4.7-23.384a4.567,4.567,0,0,1-1.526-3.5,4.719,4.719,0,0,1,1.526-3.552,5.435,5.435,0,0,1,3.909-1.454,5.375,5.375,0,0,1,3.862,1.454,4.722,4.722,0,0,1,1.525,3.552,4.6,4.6,0,0,1-1.5,3.5,5.455,5.455,0,0,1-3.885,1.406A5.539,5.539,0,0,1,748.305,490.732Z" transform="translate(0 -25.268)" fill="#fff"/>
      <path id="Trazado_18" data-name="Trazado 18" d="M834.544,467.132a20.648,20.648,0,0,1,3.051-3.409,18.183,18.183,0,0,0,2.05-2.169,3.066,3.066,0,0,0,.668-1.883,2.6,2.6,0,0,0-1.168-2.217,5.094,5.094,0,0,0-3.027-.834,6.726,6.726,0,0,0-3.456.906,6.946,6.946,0,0,0-2.5,2.527l-7.1-3.814a13.44,13.44,0,0,1,5.53-5.2,18.5,18.5,0,0,1,8.629-1.859,15.913,15.913,0,0,1,9.129,2.36,7.549,7.549,0,0,1,3.456,6.6,8.437,8.437,0,0,1-.667,3.456,9.435,9.435,0,0,1-1.6,2.527,29.02,29.02,0,0,1-2.407,2.312,17.545,17.545,0,0,0-2.384,2.36,3.576,3.576,0,0,0-.763,2.265H833.5A6.869,6.869,0,0,1,834.544,467.132Zm-.667,15.065a4.717,4.717,0,0,1-1.525-3.552,4.584,4.584,0,0,1,1.5-3.528,5.51,5.51,0,0,1,3.885-1.383,5.6,5.6,0,0,1,3.909,1.383,4.552,4.552,0,0,1,1.526,3.528,4.72,4.72,0,0,1-1.526,3.552,5.434,5.434,0,0,1-3.909,1.454A5.37,5.37,0,0,1,833.877,482.2Z" transform="translate(-63.404 0)" fill="#fff"/>
    </g>
  </g>
</svg>
