<?xml version="1.0" encoding="utf-8"?>
<!-- Generator: Adobe Illustrator 25.0.0, SVG Export Plug-In . SVG Version: 6.00 Build 0)  -->
<svg version="1.1" id="Capa_1" xmlns="http://www.w3.org/2000/svg" xmlns:xlink="http://www.w3.org/1999/xlink" x="0px" y="0px"
	 viewBox="0 0 35 35" style="enable-background:new 0 0 35 35;" xml:space="preserve">
<style type="text/css">
	.st0{fill:#FF4500;}
</style>
<g>
	<path id="Trazado_25" class="st0" d="M17.5,3C9.5,3,3,9.5,3,17.5c0,3.8,1.5,7.5,4.2,10.3c5.7,5.6,14.9,5.6,20.5-0.1
		c5.6-5.7,5.6-14.8,0-20.4C25,4.5,21.3,3,17.5,3 M17.5,0C27.2,0,35,7.8,35,17.5S27.2,35,17.5,35S0,27.2,0,17.5S7.8,0,17.5,0z"/>
	<g id="Grupo_9" transform="translate(-245.173 -57.658)">
		<path id="Trazado_18" class="st0" d="M259.5,70h2v3.8c-0.5,0.4-1.1,0.7-1.8,0.9c-0.7,0.2-1.3,0.3-2,0.3c-0.9,0-1.8-0.2-2.6-0.6
			c-0.8-0.4-1.4-1-1.8-1.7c-0.9-1.6-0.9-3.5,0-5c0.4-0.7,1.1-1.3,1.8-1.7c0.8-0.4,1.7-0.6,2.7-0.6c0.8,0,1.5,0.1,2.2,0.4
			c0.7,0.3,1.2,0.7,1.7,1.2l-1.4,1.3c-0.6-0.7-1.5-1.1-2.4-1.1c-0.6,0-1.1,0.1-1.6,0.4c-0.5,0.2-0.8,0.6-1.1,1.1
			c-0.5,1-0.5,2.1,0,3.1c0.3,0.4,0.6,0.8,1.1,1.1c0.5,0.3,1,0.4,1.6,0.4c0.6,0,1.2-0.1,1.7-0.4L259.5,70z"/>
		<path id="Trazado_19" class="st0" d="M265.4,74.4c-0.8-0.4-1.4-1-1.8-1.7c-0.9-1.5-0.9-3.4,0-5c0.4-0.7,1.1-1.3,1.8-1.7
			c1.7-0.8,3.6-0.8,5.3,0c2.3,1.2,3.2,4.1,2,6.5c-0.4,0.8-1.1,1.5-2,2C269,75.2,267.1,75.2,265.4,74.4z M269.6,72.8
			c0.4-0.3,0.8-0.6,1.1-1.1c0.5-1,0.5-2.1,0-3.1c-0.2-0.4-0.6-0.8-1.1-1.1c-0.9-0.5-2.1-0.5-3,0c-0.4,0.3-0.8,0.6-1.1,1.1
			c-0.5,1-0.5,2.1,0,3.1c0.2,0.4,0.6,0.8,1.1,1.1C267.5,73.3,268.6,73.3,269.6,72.8z"/>
		<path id="Trazado_20" class="st0" d="M256.1,76.4V81h-1.1v-1.9H253V81h-1.1v-4.6h1.1v1.8h2.1v-1.8L256.1,76.4z"/>
		<path id="Trazado_21" class="st0" d="M261.9,81c0,0.9-0.5,1.7-1.2,2.1c-0.8,0.4-1.8,0.4-2.6,0c-0.4-0.2-0.7-0.5-0.9-0.8
			c-0.2-0.4-0.3-0.8-0.3-1.2v-2.3c0-0.4,0.1-0.8,0.3-1.2c0.2-0.4,0.5-0.7,0.9-0.8c0.8-0.4,1.8-0.4,2.6,0c0.8,0.4,1.2,1.2,1.2,2.1V81
			z M260.9,78.7c0-0.3-0.1-0.5-0.2-0.8c-0.1-0.2-0.3-0.4-0.5-0.5c-0.5-0.2-1-0.2-1.5,0c-0.2,0.1-0.4,0.3-0.5,0.5
			c-0.1,0.2-0.2,0.5-0.2,0.8V81c0,0.3,0.1,0.5,0.2,0.8c0.1,0.2,0.3,0.4,0.5,0.5c0.5,0.2,1,0.2,1.5,0c0.2-0.1,0.4-0.3,0.5-0.5
			c0.1-0.2,0.2-0.5,0.2-0.8V78.7z"/>
		<path id="Trazado_22" class="st0" d="M266.9,81l0-2.7l-1.3,2.3h-0.5l-1.3-2.2V81h-1v-4.6h0.9l1.7,2.8l1.7-2.8h0.9l0,4.6H266.9z"/>
		<path id="Trazado_23" class="st0" d="M269,83.3v-6.9h3.5v0.8H270v1h2.1v0.8H270v3.4h2.5v0.8H269"/>
		<path id="Trazado_24" class="st0" d="M273.3,80.8c-0.1-0.1-0.2-0.3-0.2-0.4c0-0.2,0.1-0.3,0.2-0.4c0.3-0.2,0.6-0.2,0.9,0
			c0.1,0.1,0.2,0.3,0.2,0.4c0,0.2-0.1,0.3-0.2,0.4C273.9,81.1,273.6,81.1,273.3,80.8L273.3,80.8z M273.1,76.4h1.2l-0.2,3h-0.8
			L273.1,76.4z"/>
	</g>
</g>
</svg>
