<?xml version="1.0" encoding="utf-8"?>
<!-- Generator: Adobe Illustrator 25.0.0, SVG Export Plug-In . SVG Version: 6.00 Build 0)  -->
<svg version="1.1" id="Capa_1" xmlns="http://www.w3.org/2000/svg" xmlns:xlink="http://www.w3.org/1999/xlink" x="0px" y="0px"
	 viewBox="0 0 35 35" style="enable-background:new 0 0 35 35;" xml:space="preserve">
<style type="text/css">
	.st0{fill:none;}
	.st1{fill:#FF4500;}
</style>
<rect class="st0" width="35" height="35"/>
<path id="Trazado_28" class="st1" d="M17.5,3C9.5,3,3,9.5,3,17.5c0,3.8,1.5,7.5,4.2,10.3c5.7,5.6,14.9,5.6,20.5-0.1
	c5.6-5.7,5.6-14.8,0-20.4C25,4.5,21.3,3,17.5,3 M17.5,0C27.2,0,35,7.8,35,17.5S27.2,35,17.5,35S0,27.2,0,17.5S7.8,0,17.5,0z"/>
<path id="facebook-2" class="st1" d="M19.5,13.2h1.2v-2.1C20.1,11,19.5,11,18.9,11c-1.6-0.1-2.9,1.1-3,2.7c0,0.2,0,0.3,0,0.5V16H14
	v2.4h1.9v6h2.4v-6h1.9l0.3-2.4h-2.2v-1.6C18.3,13.7,18.5,13.2,19.5,13.2L19.5,13.2z"/>
</svg>
