<?xml version="1.0" encoding="utf-8"?>
<!-- Generator: Adobe Illustrator 25.0.0, SVG Export Plug-In . SVG Version: 6.00 Build 0)  -->
<svg version="1.1" id="Capa_1" xmlns="http://www.w3.org/2000/svg" xmlns:xlink="http://www.w3.org/1999/xlink" x="0px" y="0px"
	 viewBox="0 0 35 35" style="enable-background:new 0 0 35 35;" xml:space="preserve">
<style type="text/css">
	.st0{fill:none;}
	.st1{fill:#FF4500;}
</style>
<g>
	<rect class="st0" width="35" height="35"/>
	<path id="Trazado_27" class="st1" d="M17.5,3C9.5,3,3,9.5,3,17.5c0,3.8,1.5,7.5,4.2,10.3c5.7,5.6,14.9,5.6,20.5-0.1
		c5.6-5.7,5.6-14.8,0-20.4C25,4.5,21.3,3,17.5,3 M17.5,0C27.2,0,35,7.8,35,17.5S27.2,35,17.5,35S0,27.2,0,17.5S7.8,0,17.5,0z"/>
	<path id="Trazado_9" class="st1" d="M20.1,11h-5c-2.3,0-4.2,1.9-4.2,4.2c0,0,0,0,0,0v5c0,2.3,1.9,4.2,4.2,4.2h5
		c2.3,0,4.2-1.9,4.2-4.2v-5C24.3,12.9,22.4,11,20.1,11z M23.1,20.1c0,1.6-1.3,2.9-2.9,2.9h-5c-1.6,0-2.9-1.3-2.9-2.9v-5
		c0-1.6,1.3-2.9,2.9-2.9h5c1.6,0,2.9,1.3,2.9,2.9V20.1z"/>
	<path id="Trazado_10" class="st1" d="M17.6,14.3c-1.8,0-3.3,1.5-3.3,3.3s1.5,3.3,3.3,3.3c1.8,0,3.3-1.5,3.3-3.3l0,0
		C21,15.8,19.5,14.3,17.6,14.3z M17.6,19.7c-1.1,0-2.1-0.9-2.1-2.1s0.9-2.1,2.1-2.1s2.1,0.9,2.1,2.1C19.7,18.8,18.8,19.7,17.6,19.7z
		"/>
	<circle id="Elipse_9" class="st1" cx="21.2" cy="14.1" r="0.4"/>
</g>
</svg>
