<svg xmlns="http://www.w3.org/2000/svg" width="215.847" height="150" viewBox="0 0 215.847 200">
  <path id="Trazado_12" data-name="Trazado 12" d="M944.267,397.719a96.429,96.429,0,0,1-38.525-35.656q-13.936-22.811-13.935-51.5t13.935-51.5A96.517,96.517,0,0,1,944.267,223.4q24.588-12.836,55.464-12.84T1055.2,223.4a96.517,96.517,0,0,1,38.525,35.656q13.932,22.818,13.935,51.5t-13.935,51.5a96.429,96.429,0,0,1-38.525,35.656q-24.592,12.84-55.464,12.842T944.267,397.719Zm77.186-45.22a42.049,42.049,0,0,0,15.438-16.666q5.735-10.788,5.736-25.273t-5.736-25.273a42.116,42.116,0,0,0-15.438-16.666,43.1,43.1,0,0,0-43.443,0,42.062,42.062,0,0,0-15.438,16.666q-5.739,10.8-5.739,25.273t5.739,25.273A42,42,0,0,0,978.01,352.5a43.082,43.082,0,0,0,43.443,0Z" transform="translate(-891.808 -210.561)" fill="#1a82dc"/>
</svg>
