<?xml version="1.0" encoding="utf-8"?>
<!-- Generator: Adobe Illustrator 25.0.0, SVG Export Plug-In . SVG Version: 6.00 Build 0)  -->
<svg version="1.1" id="Capa_1" xmlns="http://www.w3.org/2000/svg" xmlns:xlink="http://www.w3.org/1999/xlink" x="0px" y="0px"
	 viewBox="0 0 35 35" style="enable-background:new 0 0 35 35;" xml:space="preserve">
<style type="text/css">
	.st0{fill:#FF4500;}
</style>
<g>
	<path id="Trazado_26" class="st0" d="M17.5,3C9.5,3,3,9.5,3,17.5c0,3.8,1.5,7.5,4.2,10.3c5.7,5.6,14.9,5.6,20.5-0.1
		c5.6-5.7,5.6-14.8,0-20.4C25,4.5,21.3,3,17.5,3 M17.5,0C27.2,0,35,7.8,35,17.5S27.2,35,17.5,35S0,27.2,0,17.5S7.8,0,17.5,0z"/>
	<g id="twitter-2" transform="translate(11 12)">
		<g id="Grupo_1" transform="translate(0 0)">
			<path id="Trazado_8" class="st0" d="M13.1,1.3c-0.5,0.2-1,0.4-1.5,0.4c0.6-0.3,1-0.9,1.2-1.5c-0.5,0.3-1.1,0.5-1.7,0.6
				c-1-1.1-2.7-1.1-3.8-0.1c-0.5,0.5-0.8,1.2-0.8,2c0,0.2,0,0.4,0.1,0.6C4.3,3.2,2.3,2.2,0.9,0.5C0.2,1.7,0.6,3.3,1.7,4.1
				C1.3,4.1,0.9,4,0.5,3.7v0c0,1.3,0.9,2.4,2.1,2.6C2.4,6.5,2.2,6.5,2,6.5c-0.2,0-0.3,0-0.5,0C1.8,7.5,2.8,8.3,4,8.3
				C3,9.1,1.8,9.5,0.6,9.5c-0.2,0-0.4,0-0.6,0c1.2,0.8,2.7,1.2,4.1,1.2c4.2,0,7.6-3.3,7.6-7.5c0,0,0-0.1,0-0.1c0-0.1,0-0.2,0-0.3
				C12.3,2.3,12.7,1.8,13.1,1.3z"/>
		</g>
	</g>
</g>
</svg>
